<?xml version="1.0" standalone="no"?><!DOCTYPE svg PUBLIC "-//W3C//DTD SVG 1.1//EN" "http://www.w3.org/Graphics/SVG/1.1/DTD/svg11.dtd"><svg class="icon" width="200px" height="200.00px" viewBox="0 0 1024 1024" version="1.1" xmlns="http://www.w3.org/2000/svg"><path d="M177.8 845.1V164.9c-3.1 128.6-3.1 539 0 680.2z" fill="#FFBA3B" /><path d="M849.6 174.8c-1.2-42-16.1-56.9-50.9-57.4h-102c1.9 73.4-0.2 239.6-0.2 239.6 0 11.1-12.2 18-21.7 12.1L627 339.7c-4.6-2.8-10.3-2.8-14.9 0l-47.9 29.5c-9.5 5.8-21.4-1-21.7-12.1-2.7-101-0.7-211.6-0.1-239.6H312.7v775.1h486c26.2 0 46.9-21.2 47.4-47.4 2.3-112.9 8.4-499.8 3.5-670.4z" fill="#CAC134" /><path d="M225.2 117.5c-26.2 0-47.4 21.2-47.4 47.4 0.6-26.2 21.2-47.4 47.4-47.4zM177.8 845.1c0 26.2 21.2 47.4 47.4 47.4-26.2 0-46.9-21.2-47.4-47.4z" fill="#FFBA3B" /><path d="M225.2 117.5c-26.2 0-46.8 21.2-47.4 47.4v680.2c0.6 26.2 21.2 47.4 47.4 47.4h87.5v-775h-87.5z" fill="#FE506B" /><path d="M696.6 110.6c-0.3-7.9-6.4-14.2-14.2-14.2H556.7c-7.9 0-14.2 6.4-14.2 14.2 0 0-0.1 2.5-0.1 6.9h154.5c-0.2-2.4-0.3-4.8-0.3-6.9z" fill="#FB536C" /><path d="M542.4 357.1c0.3 11.1 12.2 18 21.7 12.1l47.9-29.5c4.6-2.8 10.3-2.8 14.9 0l47.9 29.5c9.5 5.8 21.7-1 21.7-12.1 0 0 2.1-166.3 0.2-239.6H542.3c-0.6 28-2.5 138.6 0.1 239.6z" fill="#8F3694" /></svg>