<?xml version="1.0" standalone="no"?><!DOCTYPE svg PUBLIC "-//W3C//DTD SVG 1.1//EN" "http://www.w3.org/Graphics/SVG/1.1/DTD/svg11.dtd"><svg class="icon" width="200px" height="200.00px" viewBox="0 0 1024 1024" version="1.1" xmlns="http://www.w3.org/2000/svg"><path fill="#13227a" d="M535.272727 553.890909c69.818182-41.890909 116.363636-116.363636 116.363637-200.145454 0-130.327273-107.054545-237.381818-237.381819-237.381819s-246.690909 107.054545-246.690909 237.381819c0 83.781818 46.545455 158.254545 116.363637 200.145454-125.672727 46.545455-214.109091 167.563636-214.109091 311.854546 0 23.272727 18.618182 41.890909 41.890909 41.890909s41.890909-18.618182 41.890909-41.890909c0-139.636364 116.363636-256 256-256 144.290909 0 256 116.363636 256 256 0 23.272727 18.618182 41.890909 41.890909 41.890909s41.890909-18.618182 41.890909-41.890909c0-139.636364-88.436364-260.654545-214.109091-311.854546z m-125.672727-41.890909c-88.436364 0-158.254545-69.818182-158.254545-158.254545s69.818182-158.254545 158.254545-158.254546 158.254545 69.818182 158.254545 158.254546-69.818182 158.254545-158.254545 158.254545zM763.345455 344.436364h153.6c23.272727 0 37.236364-18.618182 37.236363-37.236364 0-23.272727-18.618182-37.236364-37.236363-37.236364h-153.6c-23.272727 0-37.236364 18.618182-37.236364 37.236364-4.654545 18.618182 13.963636 37.236364 37.236364 37.236364zM916.945455 414.254545h-195.49091c-23.272727 0-37.236364 18.618182-37.236363 37.236364 0 23.272727 18.618182 37.236364 37.236363 37.236364h195.49091c23.272727 0 37.236364-18.618182 37.236363-37.236364s-18.618182-37.236364-37.236363-37.236364zM916.945455 563.2h-153.6c-23.272727 0-37.236364 18.618182-37.236364 37.236364 0 23.272727 18.618182 37.236364 37.236364 37.236363h153.6c23.272727 0 37.236364-18.618182 37.236363-37.236363s-18.618182-37.236364-37.236363-37.236364z" /></svg>