<?xml version="1.0" standalone="no"?><!DOCTYPE svg PUBLIC "-//W3C//DTD SVG 1.1//EN" "http://www.w3.org/Graphics/SVG/1.1/DTD/svg11.dtd"><svg class="icon" width="200px" height="200.00px" viewBox="0 0 1024 1024" version="1.1" xmlns="http://www.w3.org/2000/svg"><path d="M469.5 568l-214.6-95v272.1c0 49.2 115.5 89 258 89s258-39.8 258-89V473l-214.6 95c-27.6 12.3-59.2 12.3-86.8 0z" fill="#FF5069" /><path d="M758.7 401c-152.2-6.3-368.7-1.1-491.6 0-6.7 0.1-12.2 5.5-12.2 12.2V473l214.6 95c27.6 12.3 59.2 12.3 86.8 0l214.6-95v-59.8c0-6.7-5.5-11.9-12.2-12.2z" fill="#FF7C20" /><path d="M897 597.3V398.6c0-9.3-7.6-16.9-16.9-16.9-9.3 0-16.9 7.6-16.9 16.9v198.7c5.3-2.9 10.9-4.5 16.9-4.5 6 0 11.6 1.6 16.9 4.5z" fill="#FF5069" /><path d="M897 597.3v25.3c0 9.3-7.6 16.9-16.9 16.9-9.3 0-16.9-7.6-16.9-16.9v-25.3c-19.4 10.6-33.3 38.9-33.3 72.2 0 42.4 100.3 42.4 100.3 0 0.1-33.3-13.8-61.6-33.2-72.2z" fill="#00A9DC" /><path d="M880.2 639.5c9.3 0 16.9-7.6 16.9-16.9v-25.3c-5.3-2.9-10.9-4.5-16.9-4.5-5.9 0-11.6 1.7-16.9 4.5v25.3c0 9.3 7.5 16.9 16.9 16.9z" fill="#8F3694" /><path d="M948.6 354.4L554.5 188.5c-26.6-11.2-56.6-11.2-83.1 0L77.2 354.4c-17.5 7.3-17.7 32-0.4 39.7L254.9 473v-59.8c0-6.7 5.5-12.1 12.2-12.2 127.1-0.9 298.8-7 491.6 0 6.7 0.2 12.2 5.5 12.2 12.2V473L949 394.1c17.3-7.7 17.1-32.4-0.4-39.7z" fill="#FDBA3E" /></svg>