<?xml version="1.0" standalone="no"?><!DOCTYPE svg PUBLIC "-//W3C//DTD SVG 1.1//EN" "http://www.w3.org/Graphics/SVG/1.1/DTD/svg11.dtd"><svg class="icon" width="200px" height="200.00px" viewBox="0 0 1024 1024" version="1.1" xmlns="http://www.w3.org/2000/svg"><path fill="#13227a" d="M478 79.3h-68.1c-21.7 0-39.2-17.6-39.2-39.2 0-21.7 17.6-39.2 39.2-39.2H478c21.7 0 39.2 17.6 39.2 39.2S499.7 79.3 478 79.3zM768.7 105h-276c5.5 8.8 8.7 19.3 8.7 30.4 0 31.8-25.7 57.5-57.5 57.5s-57.5-25.7-57.5-57.5c0-11.2 3.2-21.6 8.7-30.4H103.5c-37.4 0-67.7 30.9-67.7 69v735.3c0 38.2 30.4 69 67.7 69H506c-41.2-52.2-65.9-118.5-65.9-190.8 0-168.1 133.8-304.5 298.7-304.5 34.1 0 66.9 5.9 97.5 16.6V174c0.1-38.1-30.2-69-67.6-69zM363.2 796.5H190c-23.8 0-43.1-19.7-43.1-43.9 0-24.3 19.3-43.9 43.1-43.9h173.2c23.7 0 43.1 19.7 43.1 43.9 0 24.3-19.3 43.9-43.1 43.9z m109.6-216H190c-23.7 0-43.1-19.6-43.1-43.9 0-24.3 19.3-43.9 43.1-43.9h282.7c23.8 0 43.1 19.7 43.1 43.9 0 24.3-19.3 43.9-43 43.9z m200.6-215.9H190c-23.7 0-43.1-19.6-43.1-43.9s19.3-43.9 43.1-43.9h483.4c23.8 0 43.1 19.7 43.1 43.9 0 24.3-19.3 43.9-43.1 43.9z"  /><path fill="#13227a" d="M444 78c24.9 0 46.1 15.8 54.1 37.9h167.6c-0.3-41.9-36.3-75.8-80.7-75.8H303c-44.4 0-80.4 33.9-80.6 75.8H390c7.9-22.1 29.1-37.9 54-37.9zM752.7 552.2c-130 0-235.5 105.4-235.5 235.5s105.4 235.5 235.5 235.5 235.5-105.4 235.5-235.5-105.5-235.5-235.5-235.5z m158 167.2L730.1 900.1c-6.1 6.1-14.1 9.1-22.1 9.1-8 0-16-3-22.1-9.1l-91.2-91.2c-12.2-12.2-12.2-31.9 0-44.1 12.2-12.2 31.9-12.2 44.1 0L708 834l158.6-158.6c12.2-12.2 31.9-12.2 44.1 0 12.2 12.1 12.2 31.8 0 44z"  /></svg>