<?xml version="1.0" standalone="no"?><!DOCTYPE svg PUBLIC "-//W3C//DTD SVG 1.1//EN" "http://www.w3.org/Graphics/SVG/1.1/DTD/svg11.dtd"><svg t="1725245976993" class="icon" viewBox="0 0 1024 1024" version="1.1" xmlns="http://www.w3.org/2000/svg" p-id="7245" xmlns:xlink="http://www.w3.org/1999/xlink" width="200" height="200"><path d="M326.4 536.5h181c16.6 0 30-13.5 30-30.2s-13.4-30.2-30-30.2h-181c-16.6 0-30 13.5-30 30.2 0 16.8 13.4 30.2 30 30.2z m0-130.8h363.1c16.6 0 30-13.5 30-30.2s-13.4-30.2-30-30.2H326.4c-16.6 0-30 13.5-30 30.2s13.4 30.2 30 30.2z m505.5-213.9h-42.6v-80.7c0-16.7-13.4-30.2-30-30.2h-515c-47 0-85.2 38.4-85.2 85.6 0 1.4 0 2.7 0.1 4.1-0.1 0.8-0.1 1.6-0.1 2.4v606.2c0 53.6 39.5 97.2 87.9 97.2h152.7c16.6 0 30-13.5 30-30.2s-13.4-30.2-30-30.2H247c-15 0-27.8-16.9-27.8-36.8v-531c7.9 2.5 16.4 3.8 25.1 3.8h557.6v257.2c0 16.7 13.4 30.2 30 30.2s30-13.5 30-30.2V222c0.1-16.7-13.3-30.2-30-30.2z m-102.6 0h-485c-13.8 0-25.1-11.4-25.1-25.3s11.3-25.2 25.1-25.2h485v50.5zM511.4 741.9c5.6-0.9 12.4-1.7 20.4-2.5 4.9-0.5 8.2 4.9 5.6 9.1-13.2 21.3-25.4 37.7-36.6 49.5-1.5 1.5-2 3.7-1.4 5.8l9.8 33.5c0.9 3 3.8 4.7 6.8 4.2 22.3-4.3 51-7.8 86.2-10.5 3.1-0.2 5.6-3 5.5-6.1-0.1-9.3 0.6-19.1 1.9-29.5 0.5-3.9-2.9-7.1-6.7-6.6-11.6 1.6-23 2.9-34.2 4.1-5 0.5-8.3-5.2-5.4-9.4 17.6-25.1 33.3-49.6 47.2-73.4 3.1-5.2 11-3 11 3 0 3.3 2.7 6 5.9 6h13.3c4.6 0 7.4 5 5.1 9-1.8 3-3.8 6.4-5.4 9.1-1.8 3.1-0.4 7.1 2.9 8.5 20.7 8.7 39.7 17.4 57.2 26.2 2.7 1.4 6 0.4 7.6-2.2 3.1-5 8.2-13.2 11.6-18.7 1.9-3.1 0.7-7.1-2.6-8.6-8.9-4-18.3-7.9-28-11.9-6-2.5-4.3-11.5 2.2-11.5H802c4 0 6.9 3.9 5.6 7.8l-9.1 28.5c-1.1 3.5 1.1 7.1 4.7 7.7l31.8 5.2c3.1 0.5 6-1.5 6.7-4.5l10.5-46.1c0.1-0.4 0.1-0.9 0.1-1.3v-32.2c0-3.3-2.6-6-5.9-6h-81c-3.3 0-5.9-2.7-5.9-6v-10.6c0-3.3 2.7-5.9 5.9-5.9h61.8c3.3 0 5.9-2.7 5.9-6v-28c0-3.3-2.7-6-5.9-6h-61.8c-3.3 0-5.9-2.7-5.9-6V592c0-3.3-2.7-6-5.9-6h-37.3c-3.3 0-5.9 2.7-5.9 6v17.9c0 3.3-2.7 6-5.9 6h-64.4c-3.3 0-5.9 2.7-5.9 6v28c0 3.3 2.7 6 5.9 6h64.4c3.3 0 5.9 2.7 5.9 5.9v10.6c0 3.3-2.7 6-5.9 6h-69.4c-3 0-5-3.2-3.6-5.9 0 0 0-0.1 0.1-0.1 1.1-2.1 0.1-4.6-2-5.6l-34.2-14.9c-2.9-1.3-6.3 0.1-7.7 2.9-6.5 13.7-12.9 26.6-19.1 38.5-1 1.9-2.9 3.1-5.1 3.2-4.5 0.2-8.7 0.4-12.6 0.5-4.7 0.2-7.7-4.9-5.2-9 15.6-25.9 30.3-53.8 44.1-83.7 1.5-3.3-0.2-7.2-3.7-8.3-9-2.7-24.9-7.4-33.2-9.9-3-0.9-6.2 0.8-7.3 3.7-17.3 48.9-34.2 85.2-50.6 109.1-1 1.5-1.3 3.4-0.8 5.1l10.6 33.6c0.9 3 3.7 4.8 6.6 4.3z m335.5 77.4h-70.5c-3.8 0-6.5-3.5-5.7-7.2 4.8-23.1 7.3-49.9 7.4-80.4 0-3.3-2.7-6-5.9-6h-35.8c-3.3 0-5.9 2.7-5.9 6.1 0.3 34.3-1.9 61.9-6.6 83-0.6 2.7-3 4.6-5.8 4.6h-21c-4.5 0-7.4-4.8-5.2-8.8 2.8-5.1 6.2-11.3 8.7-15.7 1.7-3 0.4-6.8-2.7-8.3-19.4-8.9-40.2-17.7-62.4-26.6-2.7-1.1-5.9 0-7.4 2.5-2.8 4.9-7.3 12.7-10.3 18-1.8 3.1-0.4 7.1 2.9 8.4 15 6.2 29.2 12.6 42.7 19.1 5.7 2.7 3.8 11.3-2.5 11.3h-36.2c-3.3 0-5.9 2.7-5.9 6v28.4c0 3.3 2.6 6 5.9 6h60.6c5.8 0 8.2 7.6 3.3 10.9-15.7 10.5-38 18.7-66.7 24.8-3.6 0.7-6.9-1.9-7.1-5.6-0.3-8.1-0.4-16.9-0.2-26.5 0.1-3.7-3.2-6.6-6.9-6-30.3 5.1-66.1 10.2-107.4 15.1-3.3 0.4-5.7 3.5-5.2 6.8l5.7 36.1c0.5 3.3 3.7 5.5 7 4.9 32.7-6.3 65-11.7 96.7-16.4 2.3-0.3 4.6 0.7 5.9 2.7 6.7 10.7 13.8 23 21.5 36.9a6 6 0 0 0 7.3 2.8c38.7-13.6 68.7-30.5 90.1-50.6 1.8-1.7 4.5-2.1 6.8-1 33 16.4 62.7 32.5 89.2 48.2 2.8 1.6 6.3 0.8 8-2 4.6-7.5 13.3-21.6 18.1-29.4 1.8-3 0.7-6.9-2.5-8.5-22.7-11.2-44.6-21.9-65.6-31.9-5.7-2.7-3.7-11.3 2.6-11.3h61.2c3.3 0 5.9-2.7 5.9-6v-28.4c-0.2-3.3-2.9-6-6.1-6z" p-id="7246" fill="#13227a"></path></svg>