<?xml version="1.0" standalone="no"?><!DOCTYPE svg PUBLIC "-//W3C//DTD SVG 1.1//EN" "http://www.w3.org/Graphics/SVG/1.1/DTD/svg11.dtd"><svg class="icon" width="200px" height="200.00px" viewBox="0 0 1024 1024" version="1.1" xmlns="http://www.w3.org/2000/svg"><path d="M777.6 551.1c20.7-1.1 39.3 0.9 56.2 5.2 0.6-97.1-0.4-210.3-3.6-299.2-0.9-24.5-19.9-43.4-44.4-44.4-30.2-1.3-67.2-2.3-108.1-3v60.2c0 21.7-17.7 39.4-39.4 39.4s-39.4-17.7-39.4-39.4v-61.3c-95.8-0.9-202.3-0.8-293.3 0.2v61.1c0 21.7-17.7 39.4-39.4 39.4s-39.4-17.7-39.4-39.4v-60c-42.9 0.8-78.9 1.7-103.4 2.9-47 2.2-45 38.7-46.9 63.2C64 436.4 73 750.4 73 750.4c1.8 36.1 12.6 63.2 52.3 65 0 0 306.1 5.7 509.8 2.6-16.3-24.9-26.3-54.6-26.3-87.4 0.1-95.6 70.5-174.2 168.8-179.5z" fill="#FFBA3B" /><path d="M833.8 556.3c-0.5 85-2.3 157.6-4.8 190.5-3.5 45-38.7 65.1-63.2 66.8-31.9 2.2-77.9 3.6-130.7 4.4 31.3 47.7 86.4 77.4 143.3 75 100.1-4.2 173.2-66.8 173.2-162.4 0.1-78.9-38-154-117.8-174.3z" fill="#FB536C" /><path d="M829 746.8c2.5-32.9 4.3-105.5 4.8-190.5-16.9-4.3-35.6-6.3-56.2-5.2-98.3 5.3-168.7 83.9-168.7 179.4 0 32.8 9.9 62.5 26.3 87.4 52.8-0.8 98.8-2.2 130.7-4.4 24.5-1.7 59.7-21.7 63.1-66.7z" fill="#FF7C20" /><path d="M677.8 166.5c0-21.7-17.7-39.4-39.4-39.4S599 144.8 599 166.5v42.1c27.3 0.3 53.8 0.6 78.8 1.1v-43.2z" fill="#99C236" /><path d="M638.4 309.2c21.7 0 39.4-17.7 39.4-39.4v-60.2c-25-0.5-51.4-0.8-78.8-1.1v61.3c0 21.7 17.7 39.4 39.4 39.4z" fill="#CAC134" /><path d="M305.7 166.5c0-21.7-17.7-39.4-39.4-39.4s-39.4 17.7-39.4 39.4v43.3c24.3-0.4 50.8-0.8 78.8-1.1v-42.2z" fill="#99C236" /><path d="M266.4 309.2c21.7 0 39.4-17.7 39.4-39.4v-61.1c-28 0.3-54.5 0.7-78.8 1.1v60c0 21.7 17.7 39.4 39.4 39.4z" fill="#CAC134" /><path d="M884.5 755.5H778.1c-13 0-23.5-10.5-23.5-23.5V625.6c0-13 10.5-23.5 23.5-23.5s23.5 10.5 23.5 23.5v82.9h82.9c13 0 23.5 10.5 23.5 23.5s-10.5 23.5-23.5 23.5z" fill="#8F3694" /><path d="M679 441.2m-56.4 0a56.4 56.4 0 1 0 112.8 0 56.4 56.4 0 1 0-112.8 0Z" fill="#8F3694" /><path d="M231.5 441.2m-56.4 0a56.4 56.4 0 1 0 112.8 0 56.4 56.4 0 1 0-112.8 0Z" fill="#8F3694" /><path d="M455.2 441.2m-56.4 0a56.4 56.4 0 1 0 112.8 0 56.4 56.4 0 1 0-112.8 0Z" fill="#8F3694" /><path d="M231.5 625m-56.4 0a56.4 56.4 0 1 0 112.8 0 56.4 56.4 0 1 0-112.8 0Z" fill="#8F3694" /><path d="M455.2 625m-56.4 0a56.4 56.4 0 1 0 112.8 0 56.4 56.4 0 1 0-112.8 0Z" fill="#8F3694" /></svg>