<?xml version="1.0" standalone="no"?><!DOCTYPE svg PUBLIC "-//W3C//DTD SVG 1.1//EN" "http://www.w3.org/Graphics/SVG/1.1/DTD/svg11.dtd"><svg t="1725245957667" class="icon" viewBox="0 0 1024 1024" version="1.1" xmlns="http://www.w3.org/2000/svg" p-id="6142" xmlns:xlink="http://www.w3.org/1999/xlink" width="200" height="200"><path d="M487.7 879.1H194.5c-27.4 0-49.6-22.1-49.6-49.3V252.6c0-27.2 22.3-49.3 49.6-49.3H753c27.4 0 49.6 22.1 49.6 49.3v293.8c0 18.1 14.8 32.8 33.1 32.8s33.1-14.7 33.1-32.8V252.6c0-63.4-52-114.9-115.8-114.9H194.5c-63.9 0-115.8 51.6-115.8 114.9v577.2c0 63.4 52 114.9 115.8 114.9h293.2c18.3 0 33.1-14.7 33.1-32.8 0-18.1-14.9-32.8-33.1-32.8z m397-159.7c-33-35.4-75.9-59.2-122.9-68.5v-51c0-17.6-10.5-33.6-26.8-40.6s-35.2-3.9-48.3 8.2l-160.4 148c-9.1 8.4-14.2 20.2-14.2 32.5s5.2 24.1 14.3 32.5l160.4 147.9c13 12.1 32 15.4 48.4 8.3s26.9-23.1 26.8-40.8V855c40.5 10.6 75.8 35.4 99.5 70.8 8.4 12.4 22.6 19.7 37.3 19.7 3.2 0 6.4-0.3 9.5-1 17.8-3.9 31.7-18.6 34.5-36.5 1.8-11.3 2.7-23 2.7-34.8-0.2-57.2-21.7-111.8-60.8-153.8z m-51.2 105.9c-29.5-17.3-63.1-27.9-97.3-30.7l-30.2-2.5v78.6L572.9 747.8 706.1 625v75.4l25.5 2.1c88.1 7.3 157.3 81.5 158 169.2-16-18.3-35.1-34.1-56.1-46.4z m-135.3-460c0-18.1-14.8-32.8-33.1-32.8H282.4c-18.3 0-33.1 14.7-33.1 32.8s14.8 32.8 33.1 32.8h382.7c18.3 0.1 33.1-14.6 33.1-32.8z m-224.4 172c0-18.1-14.8-32.8-33.1-32.8H282.4c-18.3 0-33.1 14.7-33.1 32.8 0 18.1 14.8 32.8 33.1 32.8h158.2c18.3 0 33.2-14.7 33.2-32.8zM282.4 690c-18.3 0-33.1 14.7-33.1 32.8 0 18.1 14.8 32.8 33.1 32.8H390c18.3 0 33.1-14.7 33.1-32.8 0-18.1-14.8-32.8-33.1-32.8H282.4z" fill="#13227a" p-id="6143"></path></svg>